<?xml version="1.0" encoding="iso-8859-1"?>
<!-- Generator: Adobe Illustrator 19.0.0, SVG Export Plug-In . SVG Version: 6.00 Build 0)  -->
<svg xmlns="http://www.w3.org/2000/svg" xmlns:xlink="http://www.w3.org/1999/xlink" version="1.1" id="Capa_1" x="0px" y="0px" viewBox="0 0 60 60" style="enable-background:new 0 0 60 60;" xml:space="preserve" width="512px" height="512px">
<g>
	<rect x="14" y="20" width="8" height="4" fill="#1de9b6"/>
	<rect x="29" y="20" width="8" height="4" fill="#1de9b6"/>
	<rect x="31" y="34" width="4" height="5" fill="#1de9b6"/>
	<rect x="16" y="34" width="4" height="5" fill="#1de9b6"/>
	<path d="M5,12V9c0-0.553-0.447-1-1-1H1C0.447,8,0,8.447,0,9s0.447,1,1,1h2v2v3H0v6h3v1H0v6h3v1H0v6h3v11v5c0,0.553,0.447,1,1,1   s1-0.447,1-1v-5h6v4h26v-4h23V12H5z M3,33H2v-2h1V33z M3,26H2v-2h1V26z M3,19H2v-2h1V19z M7,43c-0.552,0-1-0.448-1-1s0.448-1,1-1   s1,0.448,1,1S7.552,43,7,43z M7,40c-0.552,0-1-0.448-1-1s0.448-1,1-1s1,0.448,1,1S7.552,40,7,40z M9,35H5v-2h2v-2H5v-2h4V35z M9,28   H5v-2h2v-2H5v-2h4V28z M9,21H5v-2h2v-2H5v-2h4V21z M12,18h2v-2h2v2h1v-2h2v2h1v-2h2v2h2v8h-2v2h-2v-2h-1v2h-2v-2h-1v2h-2v-2h-2V18z    M22,30c0,0.552-0.448,1-1,1s-1-0.448-1-1s0.448-1,1-1S22,29.448,22,30z M19,30c0,0.552-0.448,1-1,1s-1-0.448-1-1s0.448-1,1-1   S19,29.448,19,30z M16,30c0,0.552-0.448,1-1,1s-1-0.448-1-1s0.448-1,1-1S16,29.448,16,30z M12,38c0-0.553,0.447-1,1-1h1v-1h-1   c-0.553,0-1-0.447-1-1s0.447-1,1-1h1v-2h8v2h1c0.553,0,1,0.447,1,1s-0.447,1-1,1h-1v1h1c0.553,0,1,0.447,1,1s-0.447,1-1,1h-1v2h-8   v-2h-1C12.447,39,12,38.553,12,38z M35,48h-1v-1h-2v1h-1v-1h-2v1h-1v-1h-2v1h-1v-1h-2v1h-1v-1h-2v1h-1v-1h-2v1h-1v-1h-2v1h-1v-2h22   V48z M38,37c0.553,0,1,0.447,1,1s-0.447,1-1,1h-1v2h-8v-2h-1c-0.553,0-1-0.447-1-1s0.447-1,1-1h1v-1h-1c-0.553,0-1-0.447-1-1   s0.447-1,1-1h1v-2h8v2h1c0.553,0,1,0.447,1,1s-0.447,1-1,1h-1v1H38z M29,30c0-0.552,0.448-1,1-1s1,0.448,1,1s-0.448,1-1,1   S29,30.552,29,30z M32,30c0-0.552,0.448-1,1-1s1,0.448,1,1s-0.448,1-1,1S32,30.552,32,30z M35,30c0-0.552,0.448-1,1-1s1,0.448,1,1   s-0.448,1-1,1S35,30.552,35,30z M39,26h-2v2h-2v-2h-1v2h-2v-2h-1v2h-2v-2h-2v-8h2v-2h2v2h1v-2h2v2h1v-2h2v2h2V26z M43,41   c-0.552,0-1-0.448-1-1s0.448-1,1-1s1,0.448,1,1S43.552,41,43,41z M44,37h-2V16h2V37z M46,41c-0.552,0-1-0.448-1-1s0.448-1,1-1   s1,0.448,1,1S46.552,41,46,41z M47,37h-2V16h2V37z M49,41c-0.552,0-1-0.448-1-1s0.448-1,1-1s1,0.448,1,1S49.552,41,49,41z M50,37   h-2V16h2V37z M52,41c-0.552,0-1-0.448-1-1s0.448-1,1-1s1,0.448,1,1S52.552,41,52,41z M53,37h-2V16h2V37z M56,43   c-0.552,0-1-0.448-1-1s0.448-1,1-1s1,0.448,1,1S56.552,43,56,43z M56,17c-0.552,0-1-0.448-1-1s0.448-1,1-1s1,0.448,1,1   S56.552,17,56,17z" fill="#1de9b6"/>
</g>
<g>
</g>
<g>
</g>
<g>
</g>
<g>
</g>
<g>
</g>
<g>
</g>
<g>
</g>
<g>
</g>
<g>
</g>
<g>
</g>
<g>
</g>
<g>
</g>
<g>
</g>
<g>
</g>
<g>
</g>
</svg>
