<?xml version="1.0" encoding="iso-8859-1"?>
<!-- Generator: Adobe Illustrator 18.0.0, SVG Export Plug-In . SVG Version: 6.00 Build 0)  -->
<!DOCTYPE svg PUBLIC "-//W3C//DTD SVG 1.1//EN" "http://www.w3.org/Graphics/SVG/1.1/DTD/svg11.dtd">
<svg xmlns="http://www.w3.org/2000/svg" xmlns:xlink="http://www.w3.org/1999/xlink" version="1.1" id="Capa_1" x="0px" y="0px" viewBox="0 0 491.107 491.107" style="enable-background:new 0 0 491.107 491.107;" xml:space="preserve" width="512px" height="512px">
<path d="M433.356,112.274c3.293-13.213-4.75-26.594-17.965-29.884c-13.113-3.283-26.601,4.76-29.873,17.972  c-8.688,34.869-27.983,65.211-55.033,87.832l-40.81-126.61l-38.982,96.702l24.5,60.804c-22.428,7.441-46.075,9.961-69.738,7.474  l70.524-175.004c3.885-9.656,3.598-20.502-0.817-29.933c-4.415-9.432-12.554-16.608-22.476-19.803  C248.864,0.587,244.979,0,241.158,0c-15.845,0-30.58,10.13-35.702,26.024l-148.26,460.05c-0.514,1.614,0.08,3.38,1.477,4.342  c0.66,0.458,1.429,0.69,2.201,0.69c0.851,0,1.684-0.281,2.391-0.835l23.311-18.518c19.344-15.348,34.355-35.463,43.586-58.364  l56.365-139.855c12.17,2.072,24.355,3.492,36.524,3.492c24.063,0,47.89-4.054,70.667-11.992l59.787,148.355  c9.23,22.9,24.24,43.016,43.586,58.364l23.31,18.518c1.335,1.052,3.195,1.116,4.591,0.144c1.397-0.962,1.994-2.729,1.479-4.342  l-79.98-248.179C389.786,207.867,420.512,163.871,433.356,112.274z" fill="#1de9b6"/>
<g>
</g>
<g>
</g>
<g>
</g>
<g>
</g>
<g>
</g>
<g>
</g>
<g>
</g>
<g>
</g>
<g>
</g>
<g>
</g>
<g>
</g>
<g>
</g>
<g>
</g>
<g>
</g>
<g>
</g>
</svg>
